# Blender 4.1.1
# www.blender.org
mtllib boss_spear_resonance_inner.mtl.mtl
o inner_resonance_shape
v 0.000000 0.254635 -0.042261
v 0.000000 1.490997 -0.005279
v 0.036599 0.254635 -0.021130
v 0.004572 1.490997 -0.002640
v 0.036599 0.254635 0.021130
v 0.004572 1.490997 0.002640
v 0.000000 0.254635 0.042261
v 0.000000 1.490997 0.005279
v -0.036599 0.254635 0.021130
v -0.004572 1.490997 0.002640
v -0.036599 0.254635 -0.021130
v -0.004572 1.490997 -0.002640
v 0.000000 0.394582 -0.019519
v 0.000000 0.639353 -0.027562
v 0.000000 0.911280 -0.011894
v 0.000000 1.100734 -0.025236
v 0.000000 1.310629 -0.006941
v 0.006011 1.310629 -0.003471
v 0.021855 1.100734 -0.012618
v 0.010301 0.911280 -0.005947
v 0.023869 0.639353 -0.013781
v 0.016904 0.394582 -0.009759
v 0.006011 1.310629 0.003471
v 0.021855 1.100734 0.012618
v 0.010301 0.911280 0.005947
v 0.023869 0.639353 0.013781
v 0.016904 0.394582 0.009759
v 0.000000 1.310629 0.006941
v 0.000000 1.100734 0.025236
v 0.000000 0.911280 0.011894
v 0.000000 0.639353 0.027562
v 0.000000 0.394582 0.019519
v -0.006011 1.310629 0.003471
v -0.021855 1.100734 0.012618
v -0.010301 0.911280 0.005947
v -0.023869 0.639353 0.013781
v -0.016904 0.394582 0.009759
v -0.006011 1.310629 -0.003471
v -0.021855 1.100734 -0.012618
v -0.010301 0.911280 -0.005947
v -0.023869 0.639353 -0.013781
v -0.016904 0.394582 -0.009759
v 0.000000 1.379169 -0.010127
v 0.008770 1.379169 -0.005064
v 0.008770 1.379169 0.005064
v 0.000000 1.379169 0.010127
v -0.008770 1.379169 0.005064
v -0.008770 1.379169 -0.005064
v 0.000000 0.254635 -0.045836
v 0.039695 0.254635 -0.022918
v 0.039759 0.394582 -0.022955
v 0.039695 0.254635 0.022918
v 0.039759 0.394582 0.022955
v 0.000000 0.254635 0.045836
v 0.000000 0.394582 0.045910
v -0.039695 0.254635 0.022918
v -0.039759 0.394582 0.022955
v -0.039695 0.254635 -0.022918
v -0.039759 0.394582 -0.022955
v 0.000000 0.394582 -0.045910
v 0.000000 -2.105515 0.018337
v 0.000000 -2.449001 0.003027
v -0.015880 -2.105515 0.009169
v -0.002621 -2.449001 0.001513
v -0.015880 -2.105515 -0.009169
v -0.002621 -2.449001 -0.001513
v 0.000000 -2.105515 -0.018337
v 0.000000 -2.449001 -0.003027
v 0.015880 -2.105515 -0.009169
v 0.002621 -2.449001 -0.001513
v 0.015880 -2.105515 0.009169
v 0.002621 -2.449001 0.001513
v 0.000000 -2.281357 0.006803
v 0.000000 -2.350327 0.009860
v -0.008539 -2.350327 0.004930
v -0.005892 -2.281357 0.003402
v -0.008539 -2.350327 -0.004930
v -0.005892 -2.281357 -0.003402
v 0.000000 -2.350327 -0.009860
v 0.000000 -2.281357 -0.006803
v 0.008539 -2.350327 -0.004930
v 0.005892 -2.281357 -0.003402
v 0.008539 -2.350327 0.004930
v 0.005892 -2.281357 0.003402
vn 0.4996 0.0375 -0.8654
vn 0.9993 0.0375 -0.0000
vn 0.4996 0.0375 0.8654
vn -0.4996 0.0375 0.8654
vn -0.0000 1.0000 -0.0000
vn -0.9993 0.0375 -0.0000
vn -0.4996 0.0375 -0.8654
vn -0.0000 -1.0000 -0.0000
vn -0.4998 -0.0284 -0.8657
vn -0.4994 0.0498 -0.8649
vn -0.4991 -0.0609 -0.8644
vn -0.4986 0.0753 -0.8636
vn -0.9996 -0.0284 -0.0000
vn -0.9988 0.0498 -0.0000
vn -0.9981 -0.0609 -0.0000
vn -0.9972 0.0753 -0.0000
vn -0.4998 -0.0284 0.8657
vn -0.4994 0.0498 0.8649
vn -0.4991 -0.0609 0.8644
vn -0.4986 0.0753 0.8636
vn 0.4998 -0.0284 0.8657
vn 0.4994 0.0498 0.8649
vn 0.4991 -0.0609 0.8644
vn 0.4986 0.0753 0.8636
vn 0.9996 -0.0284 -0.0000
vn 0.9988 0.0498 -0.0000
vn 0.9981 -0.0609 -0.0000
vn 0.9972 0.0753 -0.0000
vn 0.4998 -0.0284 -0.8657
vn 0.4994 0.0498 -0.8649
vn 0.4991 -0.0609 -0.8644
vn 0.4986 0.0753 -0.8636
vn -0.4996 -0.0402 -0.8653
vn -0.9992 -0.0402 -0.0000
vn -0.4996 -0.0402 0.8653
vn 0.4996 -0.0402 0.8653
vn 0.9992 -0.0402 -0.0000
vn 0.4996 -0.0402 -0.8653
vn -0.5000 -0.0005 -0.8660
vn -1.0000 -0.0005 -0.0000
vn -0.5000 -0.0005 0.8660
vn 0.5000 -0.0005 0.8660
vn 1.0000 -0.0005 -0.0000
vn 0.5000 -0.0005 -0.8660
vn 0.4991 0.0599 -0.8645
vn 0.9982 0.0599 -0.0000
vn 0.4991 0.0599 0.8645
vn -0.4991 0.0599 0.8645
vn -0.9982 0.0599 -0.0000
vn -0.4991 0.0599 -0.8645
vn -0.4992 0.0567 -0.8646
vn -0.4996 -0.0384 -0.8654
vn -0.9984 0.0567 -0.0000
vn -0.9993 -0.0384 -0.0000
vn -0.4992 0.0567 0.8646
vn -0.4996 -0.0384 0.8654
vn 0.4992 0.0567 0.8646
vn 0.4996 -0.0384 0.8654
vn 0.9984 0.0567 -0.0000
vn 0.9993 -0.0384 -0.0000
vn 0.4992 0.0567 -0.8646
vn 0.4996 -0.0384 -0.8654
vt 1.000000 0.964360
vt 1.000000 1.000000
vt 0.833333 1.000000
vt 0.833333 0.964360
vt 0.666667 1.000000
vt 0.666667 0.964360
vt 0.500000 1.000000
vt 0.500000 0.964360
vt 0.333333 1.000000
vt 0.333333 0.964360
vt 0.457846 0.370000
vt 0.250000 0.490000
vt 0.042154 0.370000
vt 0.042154 0.130000
vt 0.250000 0.010000
vt 0.457846 0.130000
vt 0.166667 1.000000
vt 0.166667 0.964360
vt -0.000000 1.000000
vt -0.000000 0.964360
vt 0.750000 0.490000
vt 0.957846 0.370000
vt 0.957846 0.130000
vt 0.750000 0.010000
vt 0.542154 0.130000
vt 0.542154 0.370000
vt 0.166667 0.565677
vt 0.166667 0.666369
vt -0.000000 0.666369
vt -0.000000 0.565677
vt 0.166667 0.778233
vt -0.000000 0.778233
vt 0.166667 0.856170
vt -0.000000 0.856170
vt 0.166667 0.942515
vt -0.000000 0.942515
vt 0.333333 0.565677
vt 0.333333 0.666369
vt 0.333333 0.778233
vt 0.333333 0.856170
vt 0.333333 0.942515
vt 0.500000 0.565677
vt 0.500000 0.666369
vt 0.500000 0.778233
vt 0.500000 0.856170
vt 0.500000 0.942515
vt 0.666667 0.565677
vt 0.666667 0.666369
vt 0.666667 0.778233
vt 0.666667 0.856170
vt 0.666667 0.942515
vt 0.833333 0.565677
vt 0.833333 0.666369
vt 0.833333 0.778233
vt 0.833333 0.856170
vt 0.833333 0.942515
vt 1.000000 0.565677
vt 1.000000 0.666369
vt 1.000000 0.778233
vt 1.000000 0.856170
vt 1.000000 0.942515
vt 0.166667 0.500000
vt -0.000000 0.500000
vt 0.333333 0.500000
vt 0.500000 0.500000
vt 0.666667 0.500000
vt 0.833333 0.500000
vt 1.000000 0.500000
vt 1.000000 0.833333
vt 0.833333 0.833333
vt 0.666667 0.833333
vt 0.500000 0.833333
vt 0.333333 0.833333
vt 0.166667 0.833333
vt -0.000000 0.833333
vt 0.166667 0.666667
vt -0.000000 0.666667
vt 0.333333 0.666667
vt 0.500000 0.666667
vt 0.666667 0.666667
vt 0.833333 0.666667
vt 1.000000 0.666667
s 0
f 43/1/1 2/2/1 4/3/1 44/4/1
f 44/4/2 4/3/2 6/5/2 45/6/2
f 45/6/3 6/5/3 8/7/3 46/8/3
f 46/8/4 8/7/4 10/9/4 47/10/4
f 4/11/5 2/12/5 12/13/5 10/14/5 8/15/5 6/16/5
f 47/10/6 10/9/6 12/17/6 48/18/6
f 48/18/7 12/17/7 2/19/7 43/20/7
f 1/21/8 3/22/8 5/23/8 7/24/8 9/25/8 11/26/8
f 9/25/8 7/24/8 54/24/8 56/25/8
f 42/27/9 41/28/9 14/29/9 13/30/9
f 41/28/10 40/31/10 15/32/10 14/29/10
f 40/31/11 39/33/11 16/34/11 15/32/11
f 39/33/12 38/35/12 17/36/12 16/34/12
f 11/26/8 9/25/8 56/25/8 58/26/8
f 37/37/13 36/38/13 41/28/13 42/27/13
f 36/38/14 35/39/14 40/31/14 41/28/14
f 35/39/15 34/40/15 39/33/15 40/31/15
f 34/40/16 33/41/16 38/35/16 39/33/16
f 1/21/8 11/26/8 58/26/8 49/21/8
f 32/42/17 31/43/17 36/38/17 37/37/17
f 31/43/18 30/44/18 35/39/18 36/38/18
f 30/44/19 29/45/19 34/40/19 35/39/19
f 29/45/20 28/46/20 33/41/20 34/40/20
f 37/37/5 42/27/5 59/27/5 57/37/5
f 27/47/21 26/48/21 31/43/21 32/42/21
f 26/48/22 25/49/22 30/44/22 31/43/22
f 25/49/23 24/50/23 29/45/23 30/44/23
f 24/50/24 23/51/24 28/46/24 29/45/24
f 27/47/5 32/42/5 55/42/5 53/47/5
f 22/52/25 21/53/25 26/48/25 27/47/25
f 21/53/26 20/54/26 25/49/26 26/48/26
f 20/54/27 19/55/27 24/50/27 25/49/27
f 19/55/28 18/56/28 23/51/28 24/50/28
f 13/57/5 22/52/5 51/52/5 60/57/5
f 13/57/29 14/58/29 21/53/29 22/52/29
f 14/58/30 15/59/30 20/54/30 21/53/30
f 15/59/31 16/60/31 19/55/31 20/54/31
f 16/60/32 17/61/32 18/56/32 19/55/32
f 38/35/33 48/18/33 43/20/33 17/36/33
f 33/41/34 47/10/34 48/18/34 38/35/34
f 28/46/35 46/8/35 47/10/35 33/41/35
f 23/51/36 45/6/36 46/8/36 28/46/36
f 18/56/37 44/4/37 45/6/37 23/51/37
f 17/61/38 43/1/38 44/4/38 18/56/38
f 58/62/39 59/27/39 60/30/39 49/63/39
f 56/64/40 57/37/40 59/27/40 58/62/40
f 54/65/41 55/42/41 57/37/41 56/64/41
f 52/66/42 53/47/42 55/42/42 54/65/42
f 50/67/43 51/52/43 53/47/43 52/66/43
f 49/68/44 60/57/44 51/52/44 50/67/44
f 22/52/5 27/47/5 53/47/5 51/52/5
f 3/22/8 1/21/8 49/21/8 50/22/8
f 7/24/8 5/23/8 52/23/8 54/24/8
f 32/42/5 37/37/5 57/37/5 55/42/5
f 42/27/5 13/30/5 60/30/5 59/27/5
f 5/23/8 3/22/8 50/22/8 52/23/8
f 74/69/45 62/2/45 64/3/45 75/70/45
f 75/70/46 64/3/46 66/5/46 77/71/46
f 77/71/47 66/5/47 68/7/47 79/72/47
f 79/72/48 68/7/48 70/9/48 81/73/48
f 64/11/5 62/12/5 72/13/5 70/14/5 68/15/5 66/16/5
f 81/73/49 70/9/49 72/17/49 83/74/49
f 83/74/50 72/17/50 62/19/50 74/75/50
f 61/21/8 63/22/8 65/23/8 67/24/8 69/25/8 71/26/8
f 71/62/51 84/76/51 73/77/51 61/63/51
f 84/76/52 83/74/52 74/75/52 73/77/52
f 69/64/53 82/78/53 84/76/53 71/62/53
f 82/78/54 81/73/54 83/74/54 84/76/54
f 67/65/55 80/79/55 82/78/55 69/64/55
f 80/79/56 79/72/56 81/73/56 82/78/56
f 65/66/57 78/80/57 80/79/57 67/65/57
f 78/80/58 77/71/58 79/72/58 80/79/58
f 63/67/59 76/81/59 78/80/59 65/66/59
f 76/81/60 75/70/60 77/71/60 78/80/60
f 61/68/61 73/82/61 76/81/61 63/67/61
f 73/82/62 74/69/62 75/70/62 76/81/62
