# Blender 4.1.1
# www.blender.org
mtllib boss_spear_resonance.mtl.mtl
o resonance_effect_shape
v -0.000000 1.587885 -0.020569
v 0.000000 0.144629 -0.035464
v -0.017814 1.587885 -0.010285
v -0.030713 0.144629 -0.017732
v -0.017814 1.587885 0.010285
v -0.030713 0.144629 0.017732
v -0.000000 1.587885 0.020569
v 0.000000 0.144629 0.035464
v 0.017813 1.587885 0.010285
v 0.030713 0.144629 0.017732
v 0.017813 1.587885 -0.010285
v 0.030713 0.144629 -0.017732
v -0.000000 1.305103 -0.073939
v -0.000000 1.083999 -0.109393
v -0.000000 0.908077 -0.078734
v 0.000000 0.640414 -0.138473
v 0.000000 0.397514 -0.176062
v -0.152474 0.397514 -0.088031
v -0.119921 0.640414 -0.069237
v -0.068186 0.908077 -0.039367
v -0.094737 1.083999 -0.054696
v -0.064033 1.305103 -0.036970
v -0.152474 0.397514 0.088031
v -0.119921 0.640414 0.069237
v -0.068186 0.908077 0.039367
v -0.094737 1.083999 0.054696
v -0.064033 1.305103 0.036970
v 0.000000 0.397514 0.176062
v 0.000000 0.640414 0.138473
v -0.000000 0.908077 0.078734
v -0.000000 1.083999 0.109393
v -0.000000 1.305103 0.073939
v 0.152475 0.397515 0.088031
v 0.119922 0.640414 0.069237
v 0.068186 0.908077 0.039367
v 0.094737 1.083999 0.054696
v 0.064033 1.305103 0.036970
v 0.152475 0.397515 -0.088031
v 0.119922 0.640414 -0.069237
v 0.068186 0.908077 -0.039367
v 0.094737 1.083999 -0.054696
v 0.064033 1.305103 -0.036970
v 0.000000 -2.538966 -0.008781
v 0.000000 -2.024035 -0.035827
v 0.007605 -2.538966 -0.004391
v 0.031027 -2.024035 -0.017913
v 0.007605 -2.538966 0.004391
v 0.031027 -2.024035 0.017913
v 0.000000 -2.538966 0.008781
v 0.000000 -2.024035 0.035827
v -0.007605 -2.538966 0.004391
v -0.031027 -2.024035 0.017913
v -0.007605 -2.538966 -0.004391
v -0.031027 -2.024035 -0.017913
v 0.000000 -2.332241 -0.078132
v 0.000000 -2.264357 -0.062241
v 0.000000 -2.102842 -0.119390
v 0.103395 -2.102842 -0.059695
v 0.053902 -2.264357 -0.031121
v 0.067664 -2.332241 -0.039066
v 0.103395 -2.102842 0.059695
v 0.053902 -2.264357 0.031121
v 0.067664 -2.332241 0.039066
v 0.000000 -2.102842 0.119390
v 0.000000 -2.264357 0.062241
v 0.000000 -2.332241 0.078132
v -0.103395 -2.102842 0.059695
v -0.053902 -2.264357 0.031121
v -0.067664 -2.332241 0.039066
v -0.103395 -2.102842 -0.059695
v -0.053902 -2.264357 -0.031121
v -0.067664 -2.332241 -0.039066
vn -0.4505 -0.4338 -0.7803
vn -0.9010 -0.4338 -0.0000
vn -0.4505 -0.4338 0.7803
vn 0.4505 -0.4338 0.7803
vn -0.0000 -1.0000 -0.0000
vn 0.9010 -0.4338 -0.0000
vn 0.4505 -0.4338 -0.7803
vn -0.0000 1.0000 -0.0000
vn 0.4935 0.1613 -0.8547
vn 0.4952 0.1375 -0.8578
vn 0.4944 -0.1492 -0.8563
vn 0.4909 0.1898 -0.8503
vn 0.4956 0.1328 -0.8584
vn 0.9869 0.1613 -0.0000
vn 0.9905 0.1375 -0.0000
vn 0.9888 -0.1492 -0.0000
vn 0.9818 0.1898 -0.0000
vn 0.9911 0.1328 -0.0000
vn 0.4935 0.1613 0.8547
vn 0.4952 0.1375 0.8578
vn 0.4944 -0.1492 0.8563
vn 0.4909 0.1898 0.8503
vn 0.4956 0.1328 0.8584
vn -0.4935 0.1613 0.8547
vn -0.4952 0.1375 0.8578
vn -0.4944 -0.1492 0.8563
vn -0.4909 0.1898 0.8503
vn -0.4956 0.1328 0.8584
vn -0.9869 0.1613 -0.0000
vn -0.9905 0.1375 -0.0000
vn -0.9888 -0.1492 -0.0000
vn -0.9818 0.1898 -0.0000
vn -0.9911 0.1328 -0.0000
vn -0.4935 0.1613 -0.8547
vn -0.4952 0.1375 -0.8578
vn -0.4944 -0.1492 -0.8563
vn -0.4909 0.1898 -0.8503
vn -0.4956 0.1328 -0.8584
vn 0.3683 0.6764 -0.6379
vn 0.7366 0.6764 -0.0000
vn 0.3683 0.6764 0.6379
vn -0.3683 0.6764 0.6379
vn -0.7366 0.6764 -0.0000
vn -0.3683 0.6764 -0.6379
vn -0.4801 -0.2790 -0.8316
vn -0.4900 0.1987 -0.8488
vn -0.4781 -0.2930 -0.8280
vn -0.9603 -0.2790 -0.0000
vn -0.9801 0.1987 -0.0000
vn -0.9561 -0.2930 -0.0000
vn -0.4801 -0.2790 0.8316
vn -0.4900 0.1987 0.8488
vn -0.4781 -0.2930 0.8280
vn 0.4801 -0.2790 0.8316
vn 0.4900 0.1987 0.8488
vn 0.4781 -0.2930 0.8280
vn 0.9603 -0.2790 -0.0000
vn 0.9801 0.1987 -0.0000
vn 0.9561 -0.2930 -0.0000
vn 0.4801 -0.2790 -0.8316
vn 0.4900 0.1987 -0.8488
vn 0.4781 -0.2930 -0.8280
vt 1.000000 0.912391
vt 1.000000 1.000000
vt 0.833333 1.000000
vt 0.833333 0.912391
vt 0.666667 1.000000
vt 0.666667 0.912391
vt 0.500000 1.000000
vt 0.500000 0.912391
vt 0.333333 1.000000
vt 0.333333 0.912391
vt 0.457846 0.370000
vt 0.250000 0.490000
vt 0.042154 0.370000
vt 0.042154 0.130000
vt 0.250000 0.010000
vt 0.457846 0.130000
vt 0.166667 1.000000
vt 0.166667 0.912391
vt -0.000000 1.000000
vt -0.000000 0.912391
vt 0.750000 0.490000
vt 0.957846 0.370000
vt 0.957846 0.130000
vt 0.750000 0.010000
vt 0.542154 0.130000
vt 0.542154 0.370000
vt 0.166667 0.500000
vt 0.166667 0.597966
vt -0.000000 0.597966
vt -0.000000 0.500000
vt 0.166667 0.674566
vt -0.000000 0.674566
vt 0.166667 0.735512
vt -0.000000 0.735512
vt 0.166667 0.828241
vt -0.000000 0.828241
vt 0.333333 0.500000
vt 0.333333 0.597966
vt 0.333333 0.674566
vt 0.333333 0.735512
vt 0.333333 0.828241
vt 0.500000 0.500000
vt 0.500000 0.597966
vt 0.500000 0.674566
vt 0.500000 0.735512
vt 0.500000 0.828241
vt 0.666667 0.500000
vt 0.666667 0.597966
vt 0.666667 0.674566
vt 0.666667 0.735512
vt 0.666667 0.828241
vt 0.833333 0.500000
vt 0.833333 0.597966
vt 0.833333 0.674566
vt 0.833333 0.735512
vt 0.833333 0.828241
vt 1.000000 0.500000
vt 1.000000 0.597966
vt 1.000000 0.674566
vt 1.000000 0.735512
vt 1.000000 0.828241
vt 1.000000 0.918019
vt 0.833333 0.918019
vt 0.666667 0.918019
vt 0.500000 0.918019
vt 0.333333 0.918019
vt 0.166667 0.918019
vt -0.000000 0.918019
vt 0.166667 0.679383
vt -0.000000 0.679383
vt 0.166667 0.750000
vt -0.000000 0.750000
vt 0.333333 0.679383
vt 0.333333 0.750000
vt 0.500000 0.679383
vt 0.500000 0.750000
vt 0.666667 0.679383
vt 0.666667 0.750000
vt 0.833333 0.679383
vt 0.833333 0.750000
vt 1.000000 0.679383
vt 1.000000 0.750000
s 0
f 17/1/1 2/2/1 4/3/1 18/4/1
f 18/4/2 4/3/2 6/5/2 23/6/2
f 23/6/3 6/5/3 8/7/3 28/8/3
f 28/8/4 8/7/4 10/9/4 33/10/4
f 4/11/5 2/12/5 12/13/5 10/14/5 8/15/5 6/16/5
f 33/10/6 10/9/6 12/17/6 38/18/6
f 38/18/7 12/17/7 2/19/7 17/20/7
f 1/21/8 3/22/8 5/23/8 7/24/8 9/25/8 11/26/8
f 11/27/9 42/28/9 13/29/9 1/30/9
f 42/28/10 41/31/10 14/32/10 13/29/10
f 41/31/11 40/33/11 15/34/11 14/32/11
f 40/33/12 39/35/12 16/36/12 15/34/12
f 39/35/13 38/18/13 17/20/13 16/36/13
f 9/37/14 37/38/14 42/28/14 11/27/14
f 37/38/15 36/39/15 41/31/15 42/28/15
f 36/39/16 35/40/16 40/33/16 41/31/16
f 35/40/17 34/41/17 39/35/17 40/33/17
f 34/41/18 33/10/18 38/18/18 39/35/18
f 7/42/19 32/43/19 37/38/19 9/37/19
f 32/43/20 31/44/20 36/39/20 37/38/20
f 31/44/21 30/45/21 35/40/21 36/39/21
f 30/45/22 29/46/22 34/41/22 35/40/22
f 29/46/23 28/8/23 33/10/23 34/41/23
f 5/47/24 27/48/24 32/43/24 7/42/24
f 27/48/25 26/49/25 31/44/25 32/43/25
f 26/49/26 25/50/26 30/45/26 31/44/26
f 25/50/27 24/51/27 29/46/27 30/45/27
f 24/51/28 23/6/28 28/8/28 29/46/28
f 3/52/29 22/53/29 27/48/29 5/47/29
f 22/53/30 21/54/30 26/49/30 27/48/30
f 21/54/31 20/55/31 25/50/31 26/49/31
f 20/55/32 19/56/32 24/51/32 25/50/32
f 19/56/33 18/4/33 23/6/33 24/51/33
f 1/57/34 13/58/34 22/53/34 3/52/34
f 13/58/35 14/59/35 21/54/35 22/53/35
f 14/59/36 15/60/36 20/55/36 21/54/36
f 15/60/37 16/61/37 19/56/37 20/55/37
f 16/61/38 17/1/38 18/4/38 19/56/38
f 57/62/39 44/2/39 46/3/39 58/63/39
f 58/63/40 46/3/40 48/5/40 61/64/40
f 61/64/41 48/5/41 50/7/41 64/65/41
f 64/65/42 50/7/42 52/9/42 67/66/42
f 46/11/8 44/12/8 54/13/8 52/14/8 50/15/8 48/16/8
f 67/66/43 52/9/43 54/17/43 70/67/43
f 70/67/44 54/17/44 44/19/44 57/68/44
f 43/21/5 45/22/5 47/23/5 49/24/5 51/25/5 53/26/5
f 53/27/45 72/69/45 55/70/45 43/30/45
f 72/69/46 71/71/46 56/72/46 55/70/46
f 71/71/47 70/67/47 57/68/47 56/72/47
f 51/37/48 69/73/48 72/69/48 53/27/48
f 69/73/49 68/74/49 71/71/49 72/69/49
f 68/74/50 67/66/50 70/67/50 71/71/50
f 49/42/51 66/75/51 69/73/51 51/37/51
f 66/75/52 65/76/52 68/74/52 69/73/52
f 65/76/53 64/65/53 67/66/53 68/74/53
f 47/47/54 63/77/54 66/75/54 49/42/54
f 63/77/55 62/78/55 65/76/55 66/75/55
f 62/78/56 61/64/56 64/65/56 65/76/56
f 45/52/57 60/79/57 63/77/57 47/47/57
f 60/79/58 59/80/58 62/78/58 63/77/58
f 59/80/59 58/63/59 61/64/59 62/78/59
f 43/57/60 55/81/60 60/79/60 45/52/60
f 55/81/61 56/82/61 59/80/61 60/79/61
f 56/82/62 57/62/62 58/63/62 59/80/62
